# xmcd
#
# Track frame offsets:
#	150
#	26385
#	50917
#	74603
#	90989
#	108072
#	130873
#	151593
#
# Disc length: 2296 seconds
# Revision: 1
# Processed by: cddbd v1.5.2PL0 Copyright (c) Steve Scherf et al.
# Submitted via: dBpowerAMP V12.0
#
DISCID=5b08f608
DTITLE=Michael Wycoff - Love Conquers All
DYEAR=2008
DGENRE=Soul
TTITLE0=Still Got The Magic (Sweet Delight)
TTITLE1=Looking Up To You
TTITLE2=Love Is So Easy
TTITLE3=Can We Be Friends
TTITLE4=Diamond Real
TTITLE5=Love Conquers All
TTITLE6=Take This Chance Again
TTITLE7=It's Over
EXTD=
EXTT0=
EXTT1=
EXTT2=
EXTT3=
EXTT4=
EXTT5=
EXTT6=
EXTT7=
PLAYORDER=
